<svg fill="none" xmlns="http://www.w3.org/2000/svg">
  <path fill-rule="evenodd" clip-rule="evenodd"
    d="M0 72L27.2 69.3405C54.4 65.2616 108.8 57.1039 163.2 77.4982C217.6 97.8925 272 146.839 326.4 142.76C380.8 138.681 435.2 81.577 489.6 57.1039C544 32.6308 598.4 33.3423 652.8 41.5C707.2 49.6577 745.5 84.5 788.8 77.5L813.5 72.5L816 72V0H788.8C761.6 0 707.2 0 652.8 0C598.4 0 544 0 489.6 0C435.2 0 380.8 0 326.4 0C272 0 217.6 0 163.2 0C108.8 0 54.4 0 27.2 0H0V72Z"
    fill="url(#paint0_linear_1_23)" />
  <defs>
    <linearGradient id="paint0_linear_1_23" x1="408" y1="53" x2="408" y2="172" gradientUnits="userSpaceOnUse">
      <stop stop-color="#0085FF" />
      <stop offset="1" stop-color="#00C2FF" />
    </linearGradient>
  </defs>
</svg>